<mxfile host="app.diagrams.net" modified="2021-04-20T13:56:39.058Z" agent="5.0 (Windows NT 10.0; Win64; x64) AppleWebKit/537.36 (KHTML, like Gecko) Chrome/89.0.4389.128 Safari/537.36" etag="yO6PJPQwxauorn7S5sZU" version="14.6.1" type="github">
  <diagram id="prtHgNgQTEPvFCAcTncT" name="Page-1">
    <mxGraphModel dx="2031" dy="1089" grid="1" gridSize="10" guides="1" tooltips="1" connect="0" arrows="1" fold="1" page="1" pageScale="1" pageWidth="827" pageHeight="600" math="0" shadow="0">
      <root>
        <object label="" id="0">
          <mxCell />
        </object>
        <mxCell id="1" parent="0" />
        <mxCell id="_ItUTuPJGDLVoHyRw4bW-52" style="edgeStyle=orthogonalEdgeStyle;rounded=0;orthogonalLoop=1;jettySize=auto;html=1;entryX=0.5;entryY=0;entryDx=0;entryDy=0;" edge="1" parent="1" source="_ItUTuPJGDLVoHyRw4bW-1" target="_ItUTuPJGDLVoHyRw4bW-45">
          <mxGeometry relative="1" as="geometry" />
        </mxCell>
        <mxCell id="_ItUTuPJGDLVoHyRw4bW-56" style="edgeStyle=orthogonalEdgeStyle;rounded=0;orthogonalLoop=1;jettySize=auto;html=1;entryX=1;entryY=0.5;entryDx=0;entryDy=0;" edge="1" parent="1" source="_ItUTuPJGDLVoHyRw4bW-1" target="_ItUTuPJGDLVoHyRw4bW-25">
          <mxGeometry relative="1" as="geometry" />
        </mxCell>
        <mxCell id="_ItUTuPJGDLVoHyRw4bW-57" style="edgeStyle=orthogonalEdgeStyle;rounded=0;orthogonalLoop=1;jettySize=auto;html=1;entryX=1;entryY=0.5;entryDx=0;entryDy=0;" edge="1" parent="1" source="_ItUTuPJGDLVoHyRw4bW-1" target="_ItUTuPJGDLVoHyRw4bW-26">
          <mxGeometry relative="1" as="geometry" />
        </mxCell>
        <mxCell id="_ItUTuPJGDLVoHyRw4bW-1" value="INDEX.PHP" style="rounded=0;whiteSpace=wrap;html=1;" vertex="1" parent="1">
          <mxGeometry x="40" y="480" width="160" height="80" as="geometry" />
        </mxCell>
        <mxCell id="_ItUTuPJGDLVoHyRw4bW-15" style="edgeStyle=orthogonalEdgeStyle;rounded=0;orthogonalLoop=1;jettySize=auto;html=1;entryX=0;entryY=0.5;entryDx=0;entryDy=0;" edge="1" parent="1" source="_ItUTuPJGDLVoHyRw4bW-2" target="_ItUTuPJGDLVoHyRw4bW-10">
          <mxGeometry relative="1" as="geometry" />
        </mxCell>
        <mxCell id="_ItUTuPJGDLVoHyRw4bW-16" style="edgeStyle=orthogonalEdgeStyle;rounded=0;orthogonalLoop=1;jettySize=auto;html=1;entryX=0;entryY=0.5;entryDx=0;entryDy=0;" edge="1" parent="1" source="_ItUTuPJGDLVoHyRw4bW-2" target="_ItUTuPJGDLVoHyRw4bW-9">
          <mxGeometry relative="1" as="geometry" />
        </mxCell>
        <mxCell id="_ItUTuPJGDLVoHyRw4bW-2" value="PHP" style="rounded=0;whiteSpace=wrap;html=1;" vertex="1" parent="1">
          <mxGeometry x="40" y="680" width="160" height="80" as="geometry" />
        </mxCell>
        <mxCell id="_ItUTuPJGDLVoHyRw4bW-12" style="edgeStyle=orthogonalEdgeStyle;rounded=0;orthogonalLoop=1;jettySize=auto;html=1;entryX=0;entryY=0.5;entryDx=0;entryDy=0;" edge="1" parent="1" source="_ItUTuPJGDLVoHyRw4bW-3" target="_ItUTuPJGDLVoHyRw4bW-5">
          <mxGeometry relative="1" as="geometry">
            <Array as="points">
              <mxPoint x="240" y="920" />
              <mxPoint x="240" y="860" />
            </Array>
          </mxGeometry>
        </mxCell>
        <mxCell id="_ItUTuPJGDLVoHyRw4bW-13" style="edgeStyle=orthogonalEdgeStyle;rounded=0;orthogonalLoop=1;jettySize=auto;html=1;entryX=0;entryY=0.5;entryDx=0;entryDy=0;" edge="1" parent="1" source="_ItUTuPJGDLVoHyRw4bW-3" target="_ItUTuPJGDLVoHyRw4bW-6">
          <mxGeometry relative="1" as="geometry" />
        </mxCell>
        <mxCell id="_ItUTuPJGDLVoHyRw4bW-14" style="edgeStyle=orthogonalEdgeStyle;rounded=0;orthogonalLoop=1;jettySize=auto;html=1;entryX=0;entryY=0.5;entryDx=0;entryDy=0;" edge="1" parent="1" source="_ItUTuPJGDLVoHyRw4bW-3" target="_ItUTuPJGDLVoHyRw4bW-7">
          <mxGeometry relative="1" as="geometry" />
        </mxCell>
        <mxCell id="_ItUTuPJGDLVoHyRw4bW-3" value="ASSETS" style="rounded=0;whiteSpace=wrap;html=1;" vertex="1" parent="1">
          <mxGeometry x="40" y="880" width="160" height="80" as="geometry" />
        </mxCell>
        <mxCell id="_ItUTuPJGDLVoHyRw4bW-20" style="edgeStyle=orthogonalEdgeStyle;rounded=0;orthogonalLoop=1;jettySize=auto;html=1;entryX=0;entryY=0.5;entryDx=0;entryDy=0;" edge="1" parent="1" source="_ItUTuPJGDLVoHyRw4bW-5" target="_ItUTuPJGDLVoHyRw4bW-17">
          <mxGeometry relative="1" as="geometry" />
        </mxCell>
        <mxCell id="_ItUTuPJGDLVoHyRw4bW-21" style="edgeStyle=orthogonalEdgeStyle;rounded=0;orthogonalLoop=1;jettySize=auto;html=1;entryX=0;entryY=0.5;entryDx=0;entryDy=0;" edge="1" parent="1" source="_ItUTuPJGDLVoHyRw4bW-5" target="_ItUTuPJGDLVoHyRw4bW-18">
          <mxGeometry relative="1" as="geometry" />
        </mxCell>
        <mxCell id="_ItUTuPJGDLVoHyRw4bW-5" value="CSS" style="rounded=0;whiteSpace=wrap;html=1;" vertex="1" parent="1">
          <mxGeometry x="280" y="840" width="120" height="40" as="geometry" />
        </mxCell>
        <mxCell id="_ItUTuPJGDLVoHyRw4bW-6" value="JAVASCRIPT" style="rounded=0;whiteSpace=wrap;html=1;" vertex="1" parent="1">
          <mxGeometry x="280" y="900" width="120" height="40" as="geometry" />
        </mxCell>
        <mxCell id="_ItUTuPJGDLVoHyRw4bW-7" value="IMG" style="rounded=0;whiteSpace=wrap;html=1;" vertex="1" parent="1">
          <mxGeometry x="280" y="960" width="120" height="40" as="geometry" />
        </mxCell>
        <mxCell id="_ItUTuPJGDLVoHyRw4bW-29" style="edgeStyle=orthogonalEdgeStyle;rounded=0;orthogonalLoop=1;jettySize=auto;html=1;entryX=0;entryY=0.5;entryDx=0;entryDy=0;" edge="1" parent="1" source="_ItUTuPJGDLVoHyRw4bW-9" target="_ItUTuPJGDLVoHyRw4bW-25">
          <mxGeometry relative="1" as="geometry" />
        </mxCell>
        <mxCell id="_ItUTuPJGDLVoHyRw4bW-30" style="edgeStyle=orthogonalEdgeStyle;rounded=0;orthogonalLoop=1;jettySize=auto;html=1;entryX=0;entryY=0.5;entryDx=0;entryDy=0;" edge="1" parent="1" source="_ItUTuPJGDLVoHyRw4bW-9" target="_ItUTuPJGDLVoHyRw4bW-26">
          <mxGeometry relative="1" as="geometry" />
        </mxCell>
        <mxCell id="_ItUTuPJGDLVoHyRw4bW-9" value="COMMONS" style="rounded=0;whiteSpace=wrap;html=1;" vertex="1" parent="1">
          <mxGeometry x="280" y="570" width="120" height="40" as="geometry" />
        </mxCell>
        <mxCell id="_ItUTuPJGDLVoHyRw4bW-40" style="edgeStyle=orthogonalEdgeStyle;rounded=0;orthogonalLoop=1;jettySize=auto;html=1;entryX=0;entryY=0.5;entryDx=0;entryDy=0;" edge="1" parent="1" source="_ItUTuPJGDLVoHyRw4bW-10" target="_ItUTuPJGDLVoHyRw4bW-39">
          <mxGeometry relative="1" as="geometry" />
        </mxCell>
        <mxCell id="_ItUTuPJGDLVoHyRw4bW-41" style="edgeStyle=orthogonalEdgeStyle;rounded=0;orthogonalLoop=1;jettySize=auto;html=1;entryX=0;entryY=0.75;entryDx=0;entryDy=0;" edge="1" parent="1" source="_ItUTuPJGDLVoHyRw4bW-10" target="_ItUTuPJGDLVoHyRw4bW-31">
          <mxGeometry relative="1" as="geometry" />
        </mxCell>
        <mxCell id="_ItUTuPJGDLVoHyRw4bW-42" style="edgeStyle=orthogonalEdgeStyle;rounded=0;orthogonalLoop=1;jettySize=auto;html=1;entryX=0;entryY=0.5;entryDx=0;entryDy=0;" edge="1" parent="1" source="_ItUTuPJGDLVoHyRw4bW-10" target="_ItUTuPJGDLVoHyRw4bW-34">
          <mxGeometry relative="1" as="geometry" />
        </mxCell>
        <mxCell id="_ItUTuPJGDLVoHyRw4bW-43" style="edgeStyle=orthogonalEdgeStyle;rounded=0;orthogonalLoop=1;jettySize=auto;html=1;entryX=0;entryY=0.5;entryDx=0;entryDy=0;" edge="1" parent="1" source="_ItUTuPJGDLVoHyRw4bW-10" target="_ItUTuPJGDLVoHyRw4bW-35">
          <mxGeometry relative="1" as="geometry" />
        </mxCell>
        <mxCell id="_ItUTuPJGDLVoHyRw4bW-44" style="edgeStyle=orthogonalEdgeStyle;rounded=0;orthogonalLoop=1;jettySize=auto;html=1;entryX=0;entryY=0.5;entryDx=0;entryDy=0;" edge="1" parent="1" source="_ItUTuPJGDLVoHyRw4bW-10" target="_ItUTuPJGDLVoHyRw4bW-38">
          <mxGeometry relative="1" as="geometry" />
        </mxCell>
        <mxCell id="_ItUTuPJGDLVoHyRw4bW-10" value="PAGES" style="rounded=0;whiteSpace=wrap;html=1;" vertex="1" parent="1">
          <mxGeometry x="280" y="700" width="120" height="70" as="geometry" />
        </mxCell>
        <mxCell id="_ItUTuPJGDLVoHyRw4bW-24" style="edgeStyle=orthogonalEdgeStyle;rounded=0;orthogonalLoop=1;jettySize=auto;html=1;" edge="1" parent="1" source="_ItUTuPJGDLVoHyRw4bW-17" target="_ItUTuPJGDLVoHyRw4bW-18">
          <mxGeometry relative="1" as="geometry" />
        </mxCell>
        <mxCell id="_ItUTuPJGDLVoHyRw4bW-17" value="STYLE.CSS" style="rounded=0;whiteSpace=wrap;html=1;" vertex="1" parent="1">
          <mxGeometry x="440" y="830" width="120" height="20" as="geometry" />
        </mxCell>
        <mxCell id="_ItUTuPJGDLVoHyRw4bW-18" value="FONTS" style="rounded=0;whiteSpace=wrap;html=1;" vertex="1" parent="1">
          <mxGeometry x="440" y="870" width="120" height="20" as="geometry" />
        </mxCell>
        <mxCell id="_ItUTuPJGDLVoHyRw4bW-25" value="HEADER" style="rounded=0;whiteSpace=wrap;html=1;" vertex="1" parent="1">
          <mxGeometry x="440" y="560" width="120" height="20" as="geometry" />
        </mxCell>
        <mxCell id="_ItUTuPJGDLVoHyRw4bW-26" value="FOOTER" style="rounded=0;whiteSpace=wrap;html=1;" vertex="1" parent="1">
          <mxGeometry x="440" y="600" width="120" height="20" as="geometry" />
        </mxCell>
        <mxCell id="_ItUTuPJGDLVoHyRw4bW-47" style="edgeStyle=orthogonalEdgeStyle;rounded=0;orthogonalLoop=1;jettySize=auto;html=1;entryX=0;entryY=0.5;entryDx=0;entryDy=0;" edge="1" parent="1" source="_ItUTuPJGDLVoHyRw4bW-31" target="_ItUTuPJGDLVoHyRw4bW-45">
          <mxGeometry relative="1" as="geometry" />
        </mxCell>
        <mxCell id="_ItUTuPJGDLVoHyRw4bW-31" value="ACCUEIL" style="rounded=0;whiteSpace=wrap;html=1;" vertex="1" parent="1">
          <mxGeometry x="440" y="675" width="120" height="20" as="geometry" />
        </mxCell>
        <mxCell id="_ItUTuPJGDLVoHyRw4bW-48" style="edgeStyle=orthogonalEdgeStyle;rounded=0;orthogonalLoop=1;jettySize=auto;html=1;entryX=0;entryY=0.5;entryDx=0;entryDy=0;" edge="1" parent="1" source="_ItUTuPJGDLVoHyRw4bW-34" target="_ItUTuPJGDLVoHyRw4bW-45">
          <mxGeometry relative="1" as="geometry" />
        </mxCell>
        <mxCell id="_ItUTuPJGDLVoHyRw4bW-34" value="ECO_CONCEPTION" style="rounded=0;whiteSpace=wrap;html=1;" vertex="1" parent="1">
          <mxGeometry x="440" y="710" width="120" height="20" as="geometry" />
        </mxCell>
        <mxCell id="_ItUTuPJGDLVoHyRw4bW-49" style="edgeStyle=orthogonalEdgeStyle;rounded=0;orthogonalLoop=1;jettySize=auto;html=1;entryX=0;entryY=0.5;entryDx=0;entryDy=0;" edge="1" parent="1" source="_ItUTuPJGDLVoHyRw4bW-35" target="_ItUTuPJGDLVoHyRw4bW-45">
          <mxGeometry relative="1" as="geometry" />
        </mxCell>
        <mxCell id="_ItUTuPJGDLVoHyRw4bW-35" value="CONTACT" style="rounded=0;whiteSpace=wrap;html=1;" vertex="1" parent="1">
          <mxGeometry x="440" y="750" width="120" height="20" as="geometry" />
        </mxCell>
        <mxCell id="_ItUTuPJGDLVoHyRw4bW-51" style="edgeStyle=orthogonalEdgeStyle;rounded=0;orthogonalLoop=1;jettySize=auto;html=1;entryX=0;entryY=0.5;entryDx=0;entryDy=0;" edge="1" parent="1" source="_ItUTuPJGDLVoHyRw4bW-38" target="_ItUTuPJGDLVoHyRw4bW-45">
          <mxGeometry relative="1" as="geometry">
            <mxPoint x="580" y="740" as="targetPoint" />
          </mxGeometry>
        </mxCell>
        <mxCell id="_ItUTuPJGDLVoHyRw4bW-38" value="OUTILS" style="rounded=0;whiteSpace=wrap;html=1;" vertex="1" parent="1">
          <mxGeometry x="440" y="790" width="120" height="20" as="geometry" />
        </mxCell>
        <mxCell id="_ItUTuPJGDLVoHyRw4bW-46" style="edgeStyle=orthogonalEdgeStyle;rounded=0;orthogonalLoop=1;jettySize=auto;html=1;entryX=0;entryY=0.5;entryDx=0;entryDy=0;" edge="1" parent="1" source="_ItUTuPJGDLVoHyRw4bW-39" target="_ItUTuPJGDLVoHyRw4bW-45">
          <mxGeometry relative="1" as="geometry" />
        </mxCell>
        <mxCell id="_ItUTuPJGDLVoHyRw4bW-39" value="HOME" style="rounded=0;whiteSpace=wrap;html=1;" vertex="1" parent="1">
          <mxGeometry x="440" y="640" width="120" height="20" as="geometry" />
        </mxCell>
        <mxCell id="_ItUTuPJGDLVoHyRw4bW-45" value="URI ?" style="rounded=0;whiteSpace=wrap;html=1;" vertex="1" parent="1">
          <mxGeometry x="600" y="715" width="120" height="40" as="geometry" />
        </mxCell>
      </root>
    </mxGraphModel>
  </diagram>
</mxfile>
